<svg viewBox="0 0 98 115" xmlns="http://www.w3.org/2000/svg" xmlns:bx="https://boxy-svg.com">
  <g transform="matrix(1.000001, 0, 0, 1.010191, -111.25071, -197.993439)" bx:origin="0.518591 0.518505">
    <g transform="matrix(1, 0, 0, 1, 9.343636, 2.61564)">
      <g>
        <polygon class="st1" points="124.92,209.15 102.48,222.12 102.48,236.15 175.77,278.93 175.77,292.61 198.92,278.93 &#10;&#9;&#9;&#9;&#9;&#9;198.92,265.25 124.57,222.47 &#9;&#9;&#9;&#9;" style="fill: rgb(180, 44, 44);"/>
        <polygon class="st1" points="138.95,200.73 138.95,214.06 198.92,248.42 198.92,222.47 150.7,194.07 &#9;&#9;&#9;&#9;" style="fill: rgb(180, 44, 44);"/>
        <polygon class="st1" points="102.48,250.88 102.48,277.53 150.7,305.93 162.8,299.27 162.8,287 &#9;&#9;&#9;&#9;" style="fill: rgb(180, 44, 44);"/>
      </g>
    </g>
  </g>
</svg>