<svg id="Layer_1" data-name="Layer 1" xmlns="http://www.w3.org/2000/svg" viewBox="0 0 512 512"><defs><style>.cls-1{fill:#b42d2d;}.cls-2{fill:#fff;}</style></defs><path class="cls-1" d="M332.65,397.43v21.94H179.35V397.43A32.46,32.46,0,0,1,211.77,365h88.46A32.46,32.46,0,0,1,332.65,397.43Z"/><path class="cls-1" d="M372.94,161.71c0,24.58-4.89,44.11-14.54,66.69a180.36,180.36,0,0,1-65.22,78.91A44,44,0,0,0,274,344v8.51H238V344a44,44,0,0,0-19.18-36.64,180.44,180.44,0,0,1-65.22-78.92c-9.65-22.57-14.55-42.11-14.55-66.69V101.62a9,9,0,0,1,9-9H363.94a9,9,0,0,1,9,9Z"/><path class="cls-1" d="M90.61,143a9,9,0,0,1,9-9h27v27.71c0,20.51,3.11,36.21,9.24,55.55C107.2,203.08,90.61,187.21,90.61,143Z"/><path class="cls-1" d="M376.17,217.26c6.13-19.34,9.24-35,9.24-55.55V134h27a9,9,0,0,1,9,9C421.39,187.21,404.8,203.08,376.17,217.26Z"/><path class="cls-2" d="M220.31,268.3a84.63,84.63,0,0,0,34.14,7.45,70,70,0,0,0,31.94-7.45,61.31,61.31,0,0,0,23.36-20.25,48.66,48.66,0,0,0,8.59-27.81c0-9.27-2.37-17.2-7.06-23.58a44.36,44.36,0,0,0-19.88-14.81c-8.7-3.45-18.75-5.2-29.88-5.2a64.06,64.06,0,0,1-18-2.28c-8.49-2.52-10.27-7.15-10.27-10.6,0-3.09,1.47-7.49,8.49-10.88a36.94,36.94,0,0,1,16.08-3.32c12.15,0,25,4.54,38.26,13.51l20-27a83.43,83.43,0,0,0-24.84-15.65,85.26,85.26,0,0,0-32.28-6.4,67.73,67.73,0,0,0-29.8,6.61,54.68,54.68,0,0,0-21.44,17.94,42.72,42.72,0,0,0-7.8,25.22,41.84,41.84,0,0,0,7.48,24.48,52.67,52.67,0,0,0,20.36,17.38A62.56,62.56,0,0,0,255.78,212c6.19,0,11.18.75,15.25,2.27,7.15,2.68,8.22,7.8,8.22,10.61,0,3.17-1.34,7.75-7.7,11.57-4.38,2.63-10,4-16.65,4a49.5,49.5,0,0,1-21.22-5,56.28,56.28,0,0,1-14.64-10l-23.76,26.05a80.21,80.21,0,0,0,25,16.77Z"/><path class="cls-1" d="M473,310.12h0a24.8,24.8,0,0,0-16.57-9.61l-1.3-.18a21.51,21.51,0,0,0-2.18-.43A1372.58,1372.58,0,0,0,58.13,300c-.68.1-1.36.23-2,.4l-.56.08A24.87,24.87,0,0,0,39,310.09a23.57,23.57,0,0,0-4.82,18.51l1.39,8.77a22.62,22.62,0,0,0,7.68,13.82,10.06,10.06,0,0,0-2.18,2.19,9.91,9.91,0,0,0-1.78,7.44l.65,4.11a23.69,23.69,0,0,0,9.88,16,24.16,24.16,0,0,0,14.4,4.73,26.82,26.82,0,0,0,3.78-.28l2.5-.37a24.79,24.79,0,0,0,9.13-3.16c7-1.28,63.77-11.1,161.54-11.89h.27c2.12,0,4.25,0,6.37-.05h10.82a6.74,6.74,0,0,0,.77,0l7.15,0c.22,0,.47,0,.74,0q5,0,10,.13h.18l.51,0,4.3.07a5.52,5.52,0,0,0,.71.05l1.22,0c93.41,1.91,150.66,12,153,12.43l.24,0a8.83,8.83,0,0,0,1.2.08,10.07,10.07,0,0,0,6-2,9.92,9.92,0,0,0,3.89-6.59l1.31-9.24c6.48.74,12.15-.78,16.74-4.45s7.53-8.89,8.56-15.42l2.6-16.43A23.58,23.58,0,0,0,473,310.12Z"/><path class="cls-2" d="M77.32,326.4q-5,.68-10,1.38a18.13,18.13,0,0,0-1.84-6.52q-2-3-6.09-2.41c-4.09.59-5.72,3.65-4.89,9.12a26.24,26.24,0,0,0,1.95,7.52c1.42,2.65,3.51,3.77,6.3,3.36a16.39,16.39,0,0,1,11.66,2.6,12.93,12.93,0,0,1,6.16,9.44l1,7.85a13.94,13.94,0,0,1-2.92,10.73,14.37,14.37,0,0,1-9.66,5.65l-2.51.37a14.42,14.42,0,0,1-10.89-2.66,14,14,0,0,1-5.86-9.47c-.21-1.37-.43-2.73-.65-4.1q4.88-.78,9.76-1.51c.93,6.58,3.52,9.54,7.78,8.92,2.46-.36,4-1.49,4.66-3.41a14.75,14.75,0,0,0,0-6.05c-1-7-3.57-10.23-7.76-9.62a17.09,17.09,0,0,1-11.74-2.43,13,13,0,0,1-6.45-9.35c-.47-2.93-.93-5.85-1.39-8.78a13.5,13.5,0,0,1,2.84-10.81A15.1,15.1,0,0,1,57,310.4l2.64-.38A15,15,0,0,1,71,312.72a13.58,13.58,0,0,1,5.81,9.56C77,323.66,77.14,325,77.32,326.4Z"/><path class="cls-2" d="M111.21,312.78c-3.39.37-6.78.74-10.18,1.13q3.14,27.25,6.25,54.5-5,.57-10,1.19-3.33-27.23-6.67-54.45c-3.36.41-6.71.84-10.07,1.27q-.57-4-1.13-7.95,15.44-2,30.9-3.66C110.58,307.47,110.9,310.12,111.21,312.78Z"/><path class="cls-2" d="M153.66,363.92c-3.23.26-6.46.52-9.69.8l-1.32-15.32q-.48-5.59-4.53-6.89c-1.56-.44-4.55-.47-9,0l2.25,23.4c-3.36.32-6.71.66-10.07,1l-6.51-62.74q9-1,18-1.84a15,15,0,0,1,11.12,3.32,13.66,13.66,0,0,1,5.27,9.88c.28,3.61.57,7.21.85,10.82a12.84,12.84,0,0,1-1.34,6.33,9.41,9.41,0,0,1-4.06,4.7,12.27,12.27,0,0,1,5.06,3.48,9.55,9.55,0,0,1,2.62,5.52Zm-13.85-39.36q-.27-3-.52-6c-.28-3.16-1-5.28-2.07-6.35s-3.29-1.47-6.56-1.17l-4.5.43,2.13,22.24,6.21-.48C138.51,332.86,140.27,330,139.81,324.56Z"/><path class="cls-2" d="M187.73,352.68c.16,3,.31,6,.47,9q-14.7.76-29.4,1.86-2.34-31.3-4.67-62.61,15.39-1.2,30.8-2.05c.16,3,.32,6,.47,9q-10.05.51-20.11,1.19l1.13,16.89q9.93-.66,19.86-1.18c.16,3,.31,6,.47,9q-9.87.51-19.73,1.17.64,9.46,1.27,18.92Q178,353.2,187.73,352.68Z"/><path class="cls-2" d="M224.52,360.29q-5,.12-10.05.28-1.41-7.12-2.85-14.24l-7.5.28q-1,7.2-1.88,14.4-5,.21-10.06.46,4-31.68,8.63-63.33,5.44-.18,10.89-.3Q218.38,329,224.52,360.29Zm-14.84-24q-1.31-7.59-2.63-15.2-.78,7.68-1.52,15.36Z"/><path class="cls-2" d="M277.48,360.08c-3.37-.05-6.74-.1-10.11-.12q.13-16,.28-32-4.62,16-9,32-5,0-10.1,0-4.08-16.33-8.36-32.63l.39,32.7q-5.06.06-10.1.16l-1.23-62.78c3.76-.07,7.53-.13,11.29-.17q7,22.19,13.6,44.46,6.19-22.29,12.8-44.51c3.87,0,7.73.08,11.6.15Q278,328.69,277.48,360.08Z"/><path class="cls-2" d="M313,352.15l-.39,9q-14.72-.64-29.43-.95.65-31.38,1.31-62.77,15.42.27,30.85.89l-.39,9q-10.07-.44-20.13-.72l-.48,16.92q9.93.28,19.87.71l-.39,9q-9.87-.42-19.74-.71l-.54,19Q303.31,351.72,313,352.15Z"/><path class="cls-2" d="M349.42,363.25c-3.23-.23-6.47-.45-9.7-.66q.5-7.66,1-15.35c.25-3.73-.9-6.23-3.45-7.48-1.46-.67-4.42-1.15-8.87-1.39q-.63,11.73-1.28,23.47c-3.36-.18-6.73-.35-10.09-.51l2.94-63q9,.36,18,.86a14.92,14.92,0,0,1,10.49,4.95,13.59,13.59,0,0,1,3.73,10.55q-.37,5.42-.77,10.82a12.82,12.82,0,0,1-2.27,6.06,9.48,9.48,0,0,1-4.71,4.05,12.27,12.27,0,0,1,4.48,4.19,9.49,9.49,0,0,1,1.76,5.85Zm-7.81-41c.13-2,.25-4,.38-6q.3-4.74-1.09-6.59c-.93-1.22-3-1.94-6.31-2.13l-4.51-.25q-.61,11.14-1.22,22.31l6.21.45C339.08,330.27,341.26,327.69,341.61,322.26Z"/><path class="cls-2" d="M387.8,352.87a14,14,0,0,1-5.3,9.78,14.23,14.23,0,0,1-10.67,3.28l-2.52-.22a14.28,14.28,0,0,1-9.93-5.09,14,14,0,0,1-3.5-10.55q1.37-17.91,2.72-35.83a13.54,13.54,0,0,1,5.24-9.86A14.94,14.94,0,0,1,375,301l2.64.23A15,15,0,0,1,388,306.51a13.58,13.58,0,0,1,3.43,10.65l-1,9.91c-3.26-.33-6.52-.64-9.78-.95.05-.57.14-1.51.26-2.82s.21-2.28.27-2.92q.94-10-5.83-10.57c-4.12-.36-6.39,2.16-6.84,7.54l-2.58,30.91c-.45,5.38,1.48,8.24,5.77,8.62q6,.54,6.79-7.54l.78-8.38c3.22.3,6.45.61,9.67.93Q388.35,347.38,387.8,352.87Z"/><path class="cls-2" d="M424.72,357.12a14,14,0,0,1-5.57,9.62,14.29,14.29,0,0,1-10.76,3l-2.51-.3a14.25,14.25,0,0,1-9.79-5.36,14,14,0,0,1-3.21-10.64q2.58-24.8,5.17-49.58c3.38.36,6.77.72,10.15,1.1L403,351.86c-.6,5.38,1.21,8.3,5.42,8.79,3.95.46,6.26-2,6.91-7.35q2.85-23.44,5.69-46.88,5.07.61,10.13,1.27Q427.92,332.41,424.72,357.12Z"/><path class="cls-2" d="M465.35,343.49a14,14,0,0,1-4.92,9.17q-3.94,3.15-10,2.24c-3-.44-6-.88-9-1.3q-1.35,9.57-2.71,19.16-5-.72-10-1.38L437.14,308q9,1.15,17.92,2.42a15,15,0,0,1,10.06,5.82A13.58,13.58,0,0,1,468,327.06Q466.65,335.27,465.35,343.49Zm-9.49-4.11q.88-5.83,1.76-11.67c.47-3.12.39-5.26-.25-6.4-.88-1.43-3-2.4-6.3-2.88l-4.58-.66-3.93,27.78,6.09,1q3.64.53,5.38-1.65A12.19,12.19,0,0,0,455.86,339.38Z"/><path class="cls-2" d="M255.39,409.06h-7.55l-7.49-18v18h-6.84l-.21-32.92h7.58l7.67,18.4v-18.4h6.84Z"/><polygon class="cls-2" points="268.38 401.64 268.38 376.14 260.97 376.14 260.97 401.64 260.97 409.06 278.7 408.99 278.7 404.27 278.7 401.57 268.38 401.64"/></svg>